<svg xmlns="http://www.w3.org/2000/svg" viewBox="0 0 1600 900" role="img" aria-label="Trading price board">
  <defs>
    <linearGradient id="screen" x1="0" x2="1" y1="0" y2="1">
      <stop offset="0" stop-color="#10252d"/>
      <stop offset="1" stop-color="#1d463e"/>
    </linearGradient>
    <linearGradient id="lineA" x1="0" x2="1">
      <stop offset="0" stop-color="#42d59a"/>
      <stop offset="1" stop-color="#55a7d7"/>
    </linearGradient>
  </defs>
  <rect width="1600" height="900" fill="url(#screen)"/>
  <g opacity=".24" stroke="#ffffff" stroke-width="2">
    <path d="M0 150H1600M0 300H1600M0 450H1600M0 600H1600M0 750H1600"/>
    <path d="M160 0V900M320 0V900M480 0V900M640 0V900M800 0V900M960 0V900M1120 0V900M1280 0V900M1440 0V900"/>
  </g>
  <path d="M95 670 235 590 350 625 485 420 625 470 760 350 920 380 1040 260 1185 300 1350 170 1510 215" fill="none" stroke="url(#lineA)" stroke-width="24" stroke-linecap="round" stroke-linejoin="round"/>
  <path d="M95 740 260 705 430 730 590 650 755 690 905 570 1070 610 1235 505 1510 565" fill="none" stroke="#f2bb4b" stroke-width="16" stroke-linecap="round" stroke-linejoin="round" opacity=".9"/>
  <g font-family="Arial, sans-serif" font-weight="700">
    <text x="95" y="135" fill="#ffffff" font-size="72">CCL</text>
    <text x="95" y="210" fill="#8ee9bd" font-size="48">cc 120</text>
    <text x="1260" y="135" fill="#ffffff" font-size="72">FFL</text>
    <text x="1260" y="210" fill="#ffd879" font-size="48">cc 85</text>
  </g>
</svg>
